<?xml version="1.0" encoding="UTF-8" standalone="no"?>
<svg
   xmlns:dc="http://purl.org/dc/elements/1.1/"
   xmlns:cc="http://creativecommons.org/ns#"
   xmlns:rdf="http://www.w3.org/1999/02/22-rdf-syntax-ns#"
   xmlns:svg="http://www.w3.org/2000/svg"
   xmlns="http://www.w3.org/2000/svg"
   xmlns:sodipodi="http://sodipodi.sourceforge.net/DTD/sodipodi-0.dtd"
   xmlns:inkscape="http://www.inkscape.org/namespaces/inkscape"
   height="271.98907pt"
   viewBox="-15 0 255.34926 272.52107"
   width="255.34926pt"
   version="1.1"
   id="svg12"
   sodipodi:docname="memoriae-bot-no-background.svg"
   inkscape:version="0.92.4 (5da689c313, 2019-01-14)"
   inkscape:export-filename="E:\NextCloud-Data\Self-Hosted\MemoriaeBot\memoriae-bot.png"
   inkscape:export-xdpi="187.5"
   inkscape:export-ydpi="187.5">
  <metadata
     id="metadata18">
    <rdf:RDF>
      <cc:Work
         rdf:about="">
        <dc:format>image/svg+xml</dc:format>
        <dc:type
           rdf:resource="http://purl.org/dc/dcmitype/StillImage" />
        <dc:title></dc:title>
      </cc:Work>
    </rdf:RDF>
  </metadata>
  <defs
     id="defs16" />
  <sodipodi:namedview
     pagecolor="#ffffff"
     bordercolor="#666666"
     borderopacity="1"
     objecttolerance="10"
     gridtolerance="10"
     guidetolerance="10"
     inkscape:pageopacity="0"
     inkscape:pageshadow="2"
     inkscape:window-width="1822"
     inkscape:window-height="1051"
     id="namedview14"
     showgrid="false"
     inkscape:zoom="1.3855186"
     inkscape:cx="66.592017"
     inkscape:cy="272.15878"
     inkscape:window-x="1791"
     inkscape:window-y="-9"
     inkscape:window-maximized="1"
     inkscape:current-layer="svg12" />
  <path
     d="M 165.47075,68.604351 184.75923,27.26835 c 2.95866,-6.341472 0.0166,-13.855596 -6.44544,-16.539806 C 161.49954,3.746687 143.31095,0.064476 125.03088,0.0021 L 124.54643,0 C 87.784611,0 53.016711,14.229847 26.648665,40.069785 0.257747,65.930521 -14.666543,100.4302 -15.37554,137.20866 c 0,57.35809 30.640743,60.88644 15.64992,104.35152 -1.17889,3.41816 2.490847,6.48077 5.624158,4.67397 14.658155,-8.44559 41.708173,-30.37461 41.708173,-77.18714 z m 0,0"
     id="path2"
     inkscape:connector-curvature="0"
     style="fill:#f05e71;stroke-width:0.53226781" />
  <path
     d="M 172.42766,53.692531 C 158.05435,45.714751 141.72247,41.317308 124.88742,41.259092 h -0.34722 c -26.054099,0 -50.617429,10.023679 -69.163629,28.224749 -18.55868,18.21146 -29.035623,42.593899 -29.505516,68.652149 -0.382567,21.4113 6.166821,41.90569 18.092946,58.78024 2.27669,-8.12332 3.64063,-17.36939 3.64063,-27.86921 L 165.47076,68.604351 Z m 0,0"
     id="path4"
     inkscape:connector-curvature="0"
     style="fill:#e85066;stroke-width:0.53226781" />
  <path
     d="m 124.83128,57.709491 c -45.024449,-0.15593 -81.703109,35.70561 -82.511899,80.721739 -0.56138,31.304 16.37139,58.70747 41.6749,73.07246 -1.38681,24.95006 -13.92213,45.39039 -21.24081,55.32674 -1.89205,2.56778 0.26405,6.13564 3.414,5.64496 19.4049,-3.02728 32.07745,-12.49998 39.327519,-19.9746 4.47021,-4.60744 6.23127,-11.25039 4.59081,-17.45672 -0.6695,-2.54075 -1.02711,-5.20832 -1.02711,-7.95907 0,-2.14154 0.21207,-4.23111 0.62791,-6.24375 2.1062,-10.33556 9.34795,-18.80194 18.9454,-22.62762 l 20.14717,-56.5389 42.76855,-27.70079 V 92.265311 c -14.8536,-20.84576 -39.19238,-34.46018 -66.71644,-34.55582 z m 0,0"
     id="path6"
     inkscape:connector-curvature="0"
     style="fill:#9ea8b3;stroke-width:0.53226781" />
  <path
     d="m 128.63408,198.21363 20.14509,-56.5389 42.76855,-27.70079 V 92.265311 c -3.22895,-4.53259 -6.90701,-8.72212 -10.96763,-12.50413 -8.98409,11.14851 -20.75221,20.556769 -35.19828,28.102079 -17.76652,9.27934 -33.06922,12.10285 -33.16902,12.12156 l -10.46239,1.81096 -2.657179,10.27942 c -10.80961,41.81213 9.836559,68.87254 16.367229,76.13717 3.3849,-4.41616 7.92165,-7.90501 13.17363,-9.99874 z m 0,0"
     id="path8"
     inkscape:connector-curvature="0"
     style="fill:#8d97a1;stroke-width:0.53226781" />
  <path
     d="m 216.85747,64.414821 c -2.24967,-3.05222 -6.96107,-2.51164 -8.47886,0.96266 -25.8337,59.119149 -93.35894,70.816559 -93.35894,70.816559 -10.19417,39.43356 13.61233,62.01959 13.61233,62.01959 4.03152,-1.6072 8.47887,-2.39312 13.13621,-2.15402 15.59378,0.80464 28.31622,13.32125 29.35166,28.90256 0.0436,0.66118 0.0665,1.31819 0.0707,1.96898 0.0291,6.30404 3.37033,12.1174 8.70132,15.48358 10.35012,6.53483 27.98565,16.06992 48.81478,20.73765 5.19377,-62.90324 -12.69541,-77.90654 -12.69541,-77.90654 -38.46675,-4.96506 -46.39879,-26.0832 -47.80639,-37.6517 -0.44702,-3.67182 3.01272,-6.58474 6.54731,-5.48902 13.82857,4.28933 22.02674,5.4204 26.60924,5.56803 3.76746,0.12059 7.40393,1.40343 10.36467,3.73418 l 16.67703,13.13828 c 3.45974,2.7258 8.57449,0.85247 9.46854,-3.46181 9.8428,-47.54233 -10.68278,-82.647049 -21.01418,-96.668979 z m 0,0"
     id="path10"
     inkscape:connector-curvature="0"
     style="fill:#d9d9d9;stroke-width:0.53226781" />
  <path
     style="font-style:normal;font-variant:normal;font-weight:600;font-stretch:normal;font-size:30.05867767px;line-height:1.25;font-family:Cormorant;-inkscape-font-specification:'Cormorant, Semi-Bold';font-variant-ligatures:normal;font-variant-caps:normal;font-variant-numeric:normal;font-feature-settings:normal;text-align:start;letter-spacing:0px;word-spacing:0px;writing-mode:lr-tb;text-anchor:start;fill:#222426;fill-opacity:1;stroke:none;stroke-width:0.75146693"
     d="m 127.24366,15.293242 c -4.86949,0.0071 -10.5756,3.231667 -10.56603,9.754393 0.008,5.29032 3.77178,9.733511 9.54305,9.725042 5.71113,-0.0084 10.54341,-4.374838 10.53521,-9.965744 -0.007,-4.839447 -3.59067,-9.52238 -9.51223,-9.513691 z m 17.14725,0.584147 c -0.0808,-0.01786 -0.1747,0.01126 -0.19814,0.09834 -0.36734,1.364167 -1.5179,4.478537 -1.91536,5.492169 -0.0313,0.116101 0.28918,0.203023 0.31262,0.115943 1.59426,-2.683641 3.44416,-3.773446 5.85322,-3.124749 1.53832,0.414228 1.74207,0.811637 1.35911,2.233855 l -3.61938,13.438341 c -0.4533,1.683436 -0.94495,1.8939 -3.12182,1.307725 -0.0871,-0.02345 -0.18099,0.324401 -0.0939,0.347854 1.10295,0.296988 2.48255,0.60678 3.96282,1.005381 1.59637,0.429854 2.88743,0.839486 3.96134,1.128665 0.1161,0.03126 0.21003,-0.318051 0.0939,-0.349312 -2.20588,-0.593989 -2.43912,-0.998068 -1.9858,-2.681504 l 3.60322,-13.381102 c 0.3986,-1.480269 0.74462,-1.728787 2.341,-1.298925 2.38003,0.640881 3.50968,2.345418 3.09539,5.502436 -0.002,0.123917 0.31659,0.210035 0.34785,0.09393 0.25793,-0.957812 1.34136,-4.401582 1.79354,-5.618387 0.0391,-0.145124 -0.25185,-0.2239 -0.31996,-0.08659 -0.3673,0.554808 -1.09572,0.483284 -2.45988,0.115944 -1.50929,-0.406408 -2.89593,-0.686067 -5.62426,-1.420738 -2.17686,-0.586172 -4.17188,-1.154971 -5.81066,-1.658511 -0.55147,-0.148498 -1.60934,-0.495335 -1.45303,-1.075831 0.0273,-0.101587 -0.041,-0.167067 -0.12182,-0.184932 z m -18.37865,0.198141 c 4.62903,-0.0068 7.52118,4.046773 7.52934,9.607621 0.008,5.380496 -2.72389,8.360693 -6.30087,8.365946 -4.26833,0.006 -7.3403,-4.287713 -7.34882,-10.089037 -0.007,-4.899557 2.21272,-7.878795 6.12035,-7.88453 z m -21.34489,1.642366 c -0.56527,0.0078 -1.18102,0.07494 -1.84491,0.204012 -1.15074,0.223721 -2.44398,0.659572 -3.535711,0.871819 -1.386795,0.269609 -2.642578,0.421397 -3.645787,0.616441 -0.0885,0.01721 -0.02097,0.370924 0.06748,0.353715 1.799883,-0.34992 2.311971,-0.08058 2.638941,1.601271 l 2.656557,13.661436 c 0.33272,1.711361 -0.0773,2.127569 -1.877203,2.477489 -0.118033,0.02292 -0.049,0.376665 0.06898,0.353716 1.003213,-0.195036 2.260473,-0.500936 3.647253,-0.770547 1.32779,-0.258137 3.19237,-0.43661 4.3136,-0.654595 3.71779,-0.722791 6.03125,-3.622334 5.42318,-6.749992 -0.51628,-2.655564 -2.9658,-4.230939 -6.28032,-3.954009 2.09988,-1.326888 3.05904,-3.166546 2.69764,-5.025435 -0.37752,-1.941879 -1.88021,-3.019242 -4.32973,-2.985321 z m -1.48385,0.810176 c 1.65632,-0.02728 2.69166,1.074794 3.06311,2.985316 0.44169,2.271986 -0.30016,4.283527 -2.71967,4.753916 -0.0885,0.01721 -0.53219,0.103176 -1.24609,0.21135 l -1.08903,-5.605185 c -0.31551,-1.622838 0.005,-2.022275 1.24461,-2.263206 0.26187,-0.05091 0.51045,-0.07829 0.74707,-0.08219 z m 2.1135,8.258796 c 2.42833,-0.02082 3.94939,1.652814 4.44128,4.182973 0.51054,2.626054 -0.41281,4.336505 -3.18639,4.875728 -2.03594,0.395813 -2.46859,-0.102072 -2.71526,-1.370841 l -1.39433,-7.169754 c 0.69668,-0.196689 1.34524,-0.323311 1.75832,-0.40362 0.38358,-0.07455 0.74947,-0.11151 1.09638,-0.114486 z m -31.240188,0.149707 c -0.04043,0.0075 -0.0869,0.02345 -0.1409,0.0499 l -11.232379,5.495102 c -0.107993,0.05283 0.0505,0.377206 0.158514,0.324363 1.754999,-0.858701 2.210298,-0.680393 2.963305,0.858611 l 6.117415,12.501945 c 0.766225,1.565997 0.614587,2.007732 -1.140412,2.866433 -0.108001,0.05283 0.0505,0.377214 0.158515,0.324363 l 11.718188,-5.734339 c 0.323994,-0.158529 0.352265,-0.30623 0.206946,-0.603225 -0.581275,-1.188001 -1.199041,-2.792977 -1.56605,-3.885031 -0.0396,-0.081 -0.376627,-0.01556 -0.350777,0.105679 0.501326,2.666054 -0.442321,4.56592 -2.872309,5.754884 l -1.323875,0.647261 c -1.161001,0.568056 -1.736242,0.34847 -2.317509,-0.839532 l -2.999999,-6.129152 2.565554,-1.25489 c 2.025,-0.990809 3.419685,-0.669534 4.159489,0.842463 0.0396,0.081 0.363988,-0.07751 0.324364,-0.158507 -0.4888,-0.999001 -0.952507,-1.742074 -1.388456,-2.633073 -0.34348,-0.701998 -0.554733,-1.202009 -1.122797,-2.36301 -0.05283,-0.108001 -0.349319,0.03727 -0.296476,0.145303 0.634118,1.295995 0.0053,2.474453 -1.993146,3.452052 l -2.591975,1.2681 -2.694715,-5.508313 C 67.855705,31.356961 68.103208,30.699841 69.42621,30.05252 l 1.080234,-0.528379 c 2.079001,-1.017231 3.822795,-0.598949 5.258803,1.241679 0.106852,0.08159 0.350793,-0.103928 0.311153,-0.184929 L 74.304877,27.096547 C 74.245436,26.97505 74.177999,26.914925 74.056832,26.936568 Z M 49.952651,40.511412 c -0.118912,-0.06275 -0.43652,0.165203 -0.415366,0.297949 l 3.221621,15.590001 c 0.735664,3.503625 0.579667,4.576051 -0.739721,5.521524 -0.146589,0.105048 0.06327,0.398593 0.209877,0.293538 1.050626,-0.752865 1.542048,-1.252748 2.7637,-2.128177 1.24609,-0.892938 1.975712,-1.267852 2.953032,-1.968197 0.146597,-0.105055 -0.06327,-0.398593 -0.209884,-0.293538 -1.930211,1.38318 -3.628737,0.972984 -4.191781,-1.618885 l -1.147745,-5.57436 4.42221,-3.168785 6.474061,3.459393 c 1.842957,0.972082 1.896018,1.561999 0.430042,2.61252 -0.146604,0.105055 0.06327,0.3986 0.209877,0.293545 0.97732,-0.700344 1.567342,-1.271309 2.666828,-2.0592 0.95289,-0.682835 2.097014,-1.354346 3.049904,-2.037174 0.146596,-0.105055 -0.06327,-0.398593 -0.209885,-0.293545 -0.879592,0.630307 -2.00556,0.400817 -4.852244,-1.146281 z m 1.16536,3.898235 4.969661,2.652152 -3.860075,2.765166 z m -12.632573,5.600781 c -0.03434,-0.01375 -0.0665,-0.0136 -0.08806,0.0075 -0.71094,0.691732 -1.552951,1.636349 -2.630134,2.684435 -1.012557,0.985203 -2.001863,1.822037 -2.734348,2.534736 -0.08618,0.0838 0.164804,0.342165 0.250982,0.258316 1.400337,-1.362514 1.910853,-1.355684 3.105671,-0.127689 l 9.705962,9.974544 c 1.215776,1.249532 1.18752,1.738759 -0.212823,3.101274 -0.0862,0.0838 0.164811,0.34215 0.250982,0.258317 0.732485,-0.712706 1.61757,-1.656669 2.630135,-2.64188 1.077175,-1.048078 2.001847,-1.864607 2.73434,-2.577299 0.0862,-0.08389 -0.164812,-0.34363 -0.250983,-0.259782 -1.421888,1.383481 -1.847323,1.336146 -3.063107,0.0866 l -9.663391,-9.931988 c -1.19481,-1.227995 -1.272655,-1.738752 0.127689,-3.101274 0.06463,-0.06282 -0.05982,-0.224373 -0.162918,-0.265651 z M 27.07841,64.712466 c -1.447122,-0.04637 -3.001968,0.925191 -4.469177,2.898723 -0.71735,0.964906 -1.486319,2.302029 -2.167809,3.218691 -0.84289,1.133761 -1.669602,2.093234 -2.27935,2.9134 -0.05381,0.07244 0.236803,0.288112 0.290608,0.215753 1.165698,-1.567973 1.651424,-1.618118 3.026413,-0.59589 l 11.169263,8.30283 c 1.399119,1.040158 1.448971,1.527424 0.283273,3.095398 -0.07177,0.0965 0.2174,0.312242 0.289135,0.215753 0.609755,-0.820173 1.333726,-1.894125 2.176616,-3.027885 0.896688,-1.206127 1.661937,-2.135158 2.289622,-2.979447 0.0538,-0.07244 -0.235337,-0.288127 -0.289134,-0.215753 -1.183643,1.592088 -1.628767,1.636049 -3.027886,0.595891 l -5.644809,-4.196184 c 0.293132,-0.343909 0.65207,-0.82572 0.956948,-1.23581 0.197267,-0.265336 0.370541,-0.548594 0.519564,-0.849804 6.934537,0.69824 11.358912,0.692071 11.914862,-0.05576 l 2.886986,-3.885024 c 0.07169,-0.0965 -0.2174,-0.310777 -0.289142,-0.214281 -1.452639,1.953934 -5.009985,2.304862 -13.771511,1.746567 0.237929,-2.032989 -0.431688,-4.103686 -1.975532,-5.251461 -0.59553,-0.442735 -1.231158,-0.67463 -1.88894,-0.695693 z m -2.298437,2.390897 c 0.851187,-0.05546 1.91676,0.324987 3.303817,1.356165 2.339896,1.739593 2.501085,2.983895 1.102244,4.865455 -0.28694,0.385961 -0.740826,0.946398 -1.136007,1.326805 l -4.800875,-3.567995 c -1.2785,-0.9505 -1.328698,-1.588834 -0.485808,-2.722602 0.529048,-0.711617 1.165443,-1.202385 2.016629,-1.257828 z m -5.401168,15.717698 c -3.594875,-0.131154 -7.243045,1.712112 -8.977971,5.800385 -1.9022638,4.482576 -1.1727472,10.99593 4.831692,13.544024 4.869964,2.06664 10.433818,0.34595 12.688346,-4.966735 2.231045,-5.257345 0.109481,-11.414242 -5.03718,-13.598321 -1.113727,-0.472627 -2.306591,-0.735641 -3.504887,-0.779353 z m -1.58806,2.992657 c 1.46424,0.04697 3.038271,0.408722 4.637963,1.087575 4.952964,2.101876 6.623843,5.782095 5.226506,9.074843 -1.667408,3.92918 -6.821081,5.072534 -12.161433,2.806255 -4.510245,-1.914001 -6.3816832,-5.12399 -4.855183,-8.721127 1.243219,-2.929579 3.930811,-4.350933 7.152147,-4.247546 z M 4.4844967,105.58816 c -0.035094,0.006 -0.059892,0.0203 -0.063123,0.0425 -0.1246684,0.86274 -0.1670736,1.58545 -0.3390393,2.77544 -0.085975,0.59499 -0.2066234,1.00251 -0.2539132,1.32974 -0.060192,0.4165 0.1138698,0.6856 0.6149705,1.00099 l 12.7103573,7.88012 -13.7083956,4.70107 c -1.3738169,0.46963 -1.6677231,0.60933 -1.7451092,1.14482 -0.055909,0.38674 -0.098517,1.10946 -0.2274915,2.00195 -0.085983,0.595 -0.2801018,1.50733 -0.3918825,2.28082 -0.017209,0.119 0.3409255,0.17183 0.358119,0.0528 0.1590706,-1.10074 0.8441003,-1.85297 2.226514,-2.38209 l 12.7543928,2.11644 c 2.078174,0.33069 3.104355,1.42101 2.867906,3.05724 -0.01721,0.11899 0.339453,0.17035 0.356654,0.0514 0.12037,-0.833 0.203767,-1.82322 0.375733,-3.01321 0.163362,-1.1305 0.35086,-2.01397 0.475536,-2.87672 0.01721,-0.11899 -0.33946,-0.17035 -0.356654,-0.0514 -0.249352,1.72548 -1.529453,2.38989 -3.607627,2.0592 L 5.2653085,125.85864 21.035842,120.54407 c 0.161648,-0.0678 0.213537,-0.4239 0.07342,-0.5049 l -13.8992077,-8.47748 12.6986187,1.227 c 1.742675,0.13036 2.014383,0.56471 1.739233,2.46869 -0.01292,0.0892 0.343759,0.14061 0.356654,0.0514 0.146175,-1.01149 0.258805,-2.20939 0.46086,-3.60763 0.202062,-1.39823 0.451188,-2.69888 0.597356,-3.71037 0.01292,-0.0892 -0.343751,-0.14059 -0.356647,-0.0514 -0.279448,1.93373 -0.645187,2.15325 -2.383563,1.99315 L 6.6273724,108.65269 c -1.6193737,-0.14291 -2.1186935,-1.09641 -1.8478422,-2.97064 0.00969,-0.0669 -0.189768,-0.11287 -0.2950109,-0.0939 z M 15.492315,134.2804 c -0.09006,0.005 -0.161302,0.34042 -0.0396,0.36399 2.650003,0.58027 4.030696,2.19196 4.175631,4.89335 l 0.07926,1.47064 c 0.06929,1.29067 -0.358374,1.73442 -1.679055,1.80528 l -6.814573,0.36546 -0.152645,-2.85029 c -0.120783,-2.25116 0.720304,-3.41031 2.40117,-3.50049 0.09006,-0.005 0.07101,-0.36589 -0.01909,-0.36105 -1.110571,0.0596 -1.977193,0.19637 -2.967709,0.24951 -0.7803982,0.0419 -1.3218527,0.0409 -2.6125197,0.11008 -0.1200619,0.006 -0.10244,0.33668 0.017584,0.33023 1.4407425,-0.0773 2.2790647,0.96231 2.3982397,3.18346 l 0.154103,2.88111 -6.1218107,0.32877 c -1.2306323,0.066 -1.7395783,-0.41818 -1.8184899,-1.88894 l -0.063123,-1.20206 c -0.1239996,-2.31118 0.9412574,-3.75205 3.1966728,-4.35469 0.1168381,-0.0665 0.041631,-0.36441 -0.048394,-0.35959 l -3.8997077,0.27006 c -0.180089,0.01 -0.2667933,0.0739 -0.2539131,0.31409 l 0.6707443,12.48727 c 0.00676,0.12006 0.3660321,0.10096 0.359592,-0.0191 -0.1046794,-1.951 0.23823,-2.30057 1.9491174,-2.39236 l 13.8977349,-0.7456 c 1.740893,-0.0934 2.088078,0.21826 2.192758,2.16927 0.0068,0.12007 0.366024,0.10096 0.359584,-0.0191 l -0.698631,-13.02739 c -0.01931,-0.36019 -0.143899,-0.44334 -0.474071,-0.42563 -1.32068,0.0709 -3.040194,0.0126 -4.188834,-0.0763 z m 5.249989,15.52543 c -0.10631,-0.0115 -0.300564,0.0484 -0.286196,0.11447 0.41487,1.90926 0.149271,2.24374 -1.535225,2.70206 l -13.2768953,3.59295 c -1.567004,0.43279 -2.3689244,-0.28501 -2.7710344,-2.13552 -0.019162,-0.0881 -0.3713975,-0.0118 -0.3522501,0.0763 0.1850938,0.85183 0.3963537,1.54475 0.6516646,2.71967 0.1276517,0.58747 0.1587474,1.01105 0.2289569,1.33414 0.089364,0.41124 0.3463437,0.60055 0.9261229,0.72065 l 14.6638854,2.93542 -11.1971504,9.1996 c -1.1226315,0.92067 -1.347771,1.15474 -1.2328792,1.68346 0.082977,0.38185 0.2943346,1.07379 0.4858083,1.95499 0.1276593,0.58746 0.2670263,1.51125 0.4329803,2.27495 0.02555,0.11748 0.3777774,0.0412 0.3522501,-0.0763 -0.2361635,-1.08681 0.1435603,-2.03084 1.2534243,-3.01027 L 21.77264,171.41197 c 2.062506,-0.41742 3.406287,0.24406 3.757335,1.85958 0.02555,0.11749 0.377777,0.0412 0.35225,-0.0763 -0.178714,-0.82245 -0.447724,-1.77809 -0.703035,-2.95303 -0.242543,-1.11617 -0.375568,-2.01019 -0.560662,-2.86203 -0.02555,-0.11749 -0.377785,-0.0412 -0.35225,0.0763 0.370195,1.70364 -0.59698,2.77486 -2.659494,3.19227 l -11.219161,2.16047 12.915838,-10.49559 c 0.127719,-0.12004 0.05103,-0.47219 -0.10861,-0.49902 L 7.2070991,158.73536 19.532915,155.44183 c 1.678116,-0.48769 2.085141,-0.17587 2.493638,1.70401 0.01916,0.0881 0.371398,0.0118 0.35225,-0.0763 -0.217016,-0.99869 -0.530738,-2.16105 -0.830724,-3.54158 -0.299985,-1.38054 -0.522713,-2.68526 -0.739729,-3.68396 -0.0045,-0.022 -0.03058,-0.0343 -0.06605,-0.0382 z"
     id="path900"
     inkscape:connector-curvature="0" />
</svg>
