<?xml version="1.0" encoding="UTF-8" standalone="no"?>
<svg
   xmlns:dc="http://purl.org/dc/elements/1.1/"
   xmlns:cc="http://creativecommons.org/ns#"
   xmlns:rdf="http://www.w3.org/1999/02/22-rdf-syntax-ns#"
   xmlns:svg="http://www.w3.org/2000/svg"
   xmlns="http://www.w3.org/2000/svg"
   xmlns:sodipodi="http://sodipodi.sourceforge.net/DTD/sodipodi-0.dtd"
   xmlns:inkscape="http://www.inkscape.org/namespaces/inkscape"
   height="384pt"
   viewBox="-15 0 384 384.75108"
   width="384pt"
   version="1.1"
   id="svg12"
   sodipodi:docname="memoriae-bot.svg"
   inkscape:version="0.92.4 (5da689c313, 2019-01-14)">
  <metadata
     id="metadata18">
    <rdf:RDF>
      <cc:Work
         rdf:about="">
        <dc:format>image/svg+xml</dc:format>
        <dc:type
           rdf:resource="http://purl.org/dc/dcmitype/StillImage" />
        <dc:title />
      </cc:Work>
    </rdf:RDF>
  </metadata>
  <defs
     id="defs16" />
  <sodipodi:namedview
     pagecolor="#ffffff"
     bordercolor="#666666"
     borderopacity="1"
     objecttolerance="10"
     gridtolerance="10"
     guidetolerance="10"
     inkscape:pageopacity="0"
     inkscape:pageshadow="2"
     inkscape:window-width="1822"
     inkscape:window-height="1051"
     id="namedview14"
     showgrid="false"
     inkscape:zoom="1.3855186"
     inkscape:cx="152.64413"
     inkscape:cy="346.83247"
     inkscape:window-x="1791"
     inkscape:window-y="-9"
     inkscape:window-maximized="1"
     inkscape:current-layer="svg12" />
  <rect
     style="opacity:1;fill:#222426;fill-opacity:1;stroke:none;stroke-width:2.38135433;stroke-linecap:round;stroke-linejoin:miter;stroke-miterlimit:4;stroke-dasharray:none;stroke-dashoffset:0;stroke-opacity:1;paint-order:markers fill stroke"
     id="rect853"
     width="384.7511"
     height="384.7511"
     x="-15.49974"
     y="0" />
  <path
     d="m 230.13607,124.71955 19.28848,-41.336001 c 2.95866,-6.341472 0.0166,-13.855596 -6.44544,-16.539806 C 226.16486,59.861886 207.97627,56.179675 189.6962,56.117299 l -0.48445,-0.0021 c -36.76182,0 -71.52972,14.229847 -97.897766,40.069785 -26.390918,25.860736 -41.315208,60.360416 -42.024205,97.138876 0,57.35809 30.640743,60.88644 15.64992,104.35152 -1.17889,3.41816 2.490847,6.48077 5.624158,4.67397 14.658155,-8.44559 41.708173,-30.37461 41.708173,-77.18714 z m 0,0"
     id="path2"
     inkscape:connector-curvature="0"
     style="fill:#f05e71;stroke-width:0.53226781" />
  <path
     d="M 237.09298,109.80773 C 222.71967,101.82995 206.38779,97.432507 189.55274,97.374291 h -0.34722 c -26.0541,0 -50.61743,10.023679 -69.16363,28.224749 -18.55868,18.21146 -29.035623,42.5939 -29.505516,68.65215 -0.382567,21.4113 6.166821,41.90569 18.092946,58.78024 2.27669,-8.12332 3.64063,-17.36939 3.64063,-27.86921 L 230.13608,124.71955 Z m 0,0"
     id="path4"
     inkscape:connector-curvature="0"
     style="fill:#e85066;stroke-width:0.53226781" />
  <path
     d="m 189.4966,113.82469 c -45.02445,-0.15593 -81.70311,35.70561 -82.5119,80.72174 -0.56138,31.304 16.37139,58.70747 41.6749,73.07246 -1.38681,24.95006 -13.92213,45.39039 -21.24081,55.32674 -1.89205,2.56778 0.26405,6.13564 3.414,5.64496 19.4049,-3.02728 32.07745,-12.49998 39.32752,-19.9746 4.47021,-4.60744 6.23127,-11.25039 4.59081,-17.45672 -0.6695,-2.54075 -1.02711,-5.20832 -1.02711,-7.95907 0,-2.14154 0.21207,-4.23111 0.62791,-6.24375 2.1062,-10.33556 9.34795,-18.80194 18.9454,-22.62762 l 20.14717,-56.5389 42.76855,-27.70079 v -21.70863 c -14.8536,-20.84576 -39.19238,-34.46018 -66.71644,-34.55582 z m 0,0"
     id="path6"
     inkscape:connector-curvature="0"
     style="fill:#9ea8b3;stroke-width:0.53226781" />
  <path
     d="m 193.2994,254.32883 20.14509,-56.5389 42.76855,-27.70079 v -21.70863 c -3.22895,-4.53259 -6.90701,-8.72212 -10.96763,-12.50413 -8.98409,11.14851 -20.75221,20.55677 -35.19828,28.10208 -17.76652,9.27934 -33.06922,12.10285 -33.16902,12.12156 l -10.46239,1.81096 -2.65718,10.27942 c -10.80961,41.81213 9.83656,68.87254 16.36723,76.13717 3.3849,-4.41616 7.92165,-7.90501 13.17363,-9.99874 z m 0,0"
     id="path8"
     inkscape:connector-curvature="0"
     style="fill:#8d97a1;stroke-width:0.53226781" />
  <path
     d="m 281.52279,120.53002 c -2.24967,-3.05222 -6.96107,-2.51164 -8.47886,0.96266 -25.8337,59.11915 -93.35894,70.81656 -93.35894,70.81656 -10.19417,39.43356 13.61233,62.01959 13.61233,62.01959 4.03152,-1.6072 8.47887,-2.39312 13.13621,-2.15402 15.59378,0.80464 28.31622,13.32125 29.35166,28.90256 0.0436,0.66118 0.0665,1.31819 0.0707,1.96898 0.0291,6.30404 3.37033,12.1174 8.70132,15.48358 10.35012,6.53483 27.98565,16.06992 48.81478,20.73765 5.19377,-62.90324 -12.69541,-77.90654 -12.69541,-77.90654 -38.46675,-4.96506 -46.39879,-26.0832 -47.80639,-37.6517 -0.44702,-3.67182 3.01272,-6.58474 6.54731,-5.48902 13.82857,4.28933 22.02674,5.4204 26.60924,5.56803 3.76746,0.12059 7.40393,1.40343 10.36467,3.73418 l 16.67703,13.13828 c 3.45974,2.7258 8.57449,0.85247 9.46854,-3.46181 9.8428,-47.54233 -10.68278,-82.64705 -21.01418,-96.66898 z m 0,0"
     id="path10"
     inkscape:connector-curvature="0"
     style="fill:#d9d9d9;stroke-width:0.53226781" />
  <path
     style="font-style:normal;font-variant:normal;font-weight:600;font-stretch:normal;font-size:30.05867767px;line-height:1.25;font-family:Cormorant;-inkscape-font-specification:'Cormorant, Semi-Bold';font-variant-ligatures:normal;font-variant-caps:normal;font-variant-numeric:normal;font-feature-settings:normal;text-align:start;letter-spacing:0px;word-spacing:0px;writing-mode:lr-tb;text-anchor:start;fill:#222426;fill-opacity:1;stroke:none;stroke-width:0.99999994"
     d="M 275.83984 95.025391 C 269.35985 95.034839 261.76656 99.325869 261.7793 108.00586 C 261.78994 115.04585 266.79852 120.95854 274.47852 120.94727 C 282.0785 120.93609 288.50896 115.12554 288.49805 107.68555 C 288.48873 101.24555 283.71983 95.013828 275.83984 95.025391 z M 298.6582 95.802734 C 298.55069 95.778961 298.42573 95.81772 298.39453 95.933594 C 297.9057 97.748932 296.37462 101.89332 295.8457 103.24219 C 295.80405 103.39669 296.23053 103.51236 296.26172 103.39648 C 298.38325 99.825277 300.84497 98.37504 304.05078 99.238281 C 306.09786 99.789507 306.369 100.31835 305.85938 102.21094 L 301.04297 120.09375 C 300.43974 122.33395 299.78549 122.61402 296.88867 121.83398 C 296.77277 121.80278 296.64782 122.26567 296.76367 122.29688 C 298.2314 122.69209 300.06728 123.10434 302.03711 123.63477 C 304.16145 124.20679 305.8795 124.7519 307.30859 125.13672 C 307.46309 125.17832 307.58808 124.71348 307.43359 124.67188 C 304.49815 123.88144 304.18778 123.34372 304.79102 121.10352 L 309.58594 103.29688 C 310.11637 101.32704 310.57683 100.99633 312.70117 101.56836 C 315.86835 102.4212 317.37162 104.68948 316.82031 108.89062 C 316.81765 109.05552 317.2416 109.17012 317.2832 109.01562 C 317.62643 107.74103 319.06819 103.1583 319.66992 101.53906 C 319.72195 101.34594 319.33478 101.24111 319.24414 101.42383 C 318.75536 102.16213 317.78603 102.06695 315.9707 101.57812 C 313.96224 101.0373 312.117 100.66515 308.48633 99.6875 C 305.58951 98.907463 302.93468 98.150545 300.75391 97.480469 C 300.02005 97.282859 298.61231 96.821312 298.82031 96.048828 C 298.85671 95.913643 298.76572 95.826507 298.6582 95.802734 z M 274.20117 96.066406 C 280.36116 96.057357 284.20984 101.45157 284.2207 108.85156 C 284.23135 116.01155 280.59593 119.97739 275.83594 119.98438 C 270.15594 119.99276 266.06797 114.27859 266.05664 106.55859 C 266.04733 100.0386 269.00117 96.074037 274.20117 96.066406 z M 245.79688 98.251953 C 245.04465 98.26237 244.22526 98.351681 243.3418 98.523438 C 241.81047 98.82115 240.08952 99.40115 238.63672 99.683594 C 236.79127 100.04237 235.12016 100.24436 233.78516 100.50391 C 233.66739 100.52681 233.75723 100.99751 233.875 100.97461 C 236.27016 100.50896 236.95161 100.86738 237.38672 103.10547 L 240.92188 121.28516 C 241.36464 123.56252 240.81896 124.11638 238.42383 124.58203 C 238.26676 124.61257 238.3586 125.08327 238.51562 125.05273 C 239.85063 124.79319 241.5237 124.38612 243.36914 124.02734 C 245.13606 123.68383 247.61732 123.44633 249.10938 123.15625 C 254.05675 122.19441 257.13534 118.3359 256.32617 114.17383 C 255.63914 110.63999 252.37948 108.54359 247.96875 108.91211 C 250.76312 107.14638 252.03951 104.69829 251.55859 102.22461 C 251.05621 99.640492 249.05653 98.206813 245.79688 98.251953 z M 243.82227 99.330078 C 246.02639 99.293773 247.40415 100.76034 247.89844 103.30273 C 248.48622 106.32613 247.49901 109.00295 244.2793 109.62891 C 244.16153 109.65181 243.57109 109.76621 242.62109 109.91016 L 241.17188 102.45117 C 240.75203 100.29161 241.17903 99.760066 242.82812 99.439453 C 243.1766 99.371705 243.50739 99.335265 243.82227 99.330078 z M 246.63477 110.32031 C 249.86622 110.29264 251.89034 112.51976 252.54492 115.88672 C 253.22431 119.38129 251.99558 121.65744 248.30469 122.375 C 245.59541 122.90172 245.01966 122.23917 244.69141 120.55078 L 242.83594 111.00977 C 243.76303 110.74803 244.62608 110.57953 245.17578 110.47266 C 245.68622 110.37342 246.17313 110.32427 246.63477 110.32031 z M 205.0625 110.51953 C 205.00875 110.52913 204.94686 110.55078 204.875 110.58594 L 189.92773 117.89844 C 189.78402 117.96875 189.99491 118.4004 190.13867 118.33008 C 192.4741 117.18738 193.07998 117.42466 194.08203 119.47266 L 202.22266 136.10938 C 203.2423 138.1933 203.04051 138.78113 200.70508 139.92383 C 200.56136 139.99409 200.77226 140.4258 200.91602 140.35547 L 216.50977 132.72461 C 216.94092 132.51365 216.97854 132.3171 216.78516 131.92188 C 216.01164 130.34097 215.18956 128.20518 214.70117 126.75195 C 214.64847 126.64416 214.19998 126.73128 214.23438 126.89258 C 214.90151 130.44038 213.64577 132.96859 210.41211 134.55078 L 208.65039 135.41211 C 207.10541 136.16804 206.33992 135.87583 205.56641 134.29492 L 201.57422 126.13867 L 204.98828 124.46875 C 207.68301 123.15025 209.53896 123.57778 210.52344 125.58984 C 210.57613 125.69763 211.00781 125.48669 210.95508 125.37891 C 210.30462 124.04951 209.68755 123.06068 209.10742 121.875 C 208.65034 120.94083 208.36922 120.37545 207.61328 118.73047 C 207.54302 118.58675 207.14843 118.78011 207.21875 118.92383 C 208.06259 120.64845 207.22574 122.21666 204.56641 123.51758 L 201.11719 125.20508 L 197.53125 117.875 C 196.81047 116.40188 197.13983 115.52743 198.90039 114.66602 L 200.33789 113.96289 C 203.10448 112.60923 205.425 113.16585 207.33594 115.61523 C 207.47813 115.7238 207.80275 115.47693 207.75 115.36914 L 205.39258 110.73242 C 205.31343 110.57074 205.22374 110.49073 205.0625 110.51953 z M 172.98633 128.58398 C 172.82809 128.50052 172.40544 128.80382 172.43359 128.98047 L 176.7207 149.72656 C 177.69967 154.38894 177.49208 155.81605 175.73633 157.07422 C 175.54126 157.21401 175.82053 157.60464 176.01562 157.46484 C 177.41372 156.46298 178.06767 155.79777 179.69336 154.63281 C 181.35157 153.44455 182.3225 152.94564 183.62305 152.01367 C 183.81813 151.87387 183.53884 151.48325 183.34375 151.62305 C 180.77516 153.46369 178.51488 152.91783 177.76562 149.46875 L 176.23828 142.05078 L 182.12305 137.83398 L 190.73828 142.4375 C 193.19076 143.73108 193.26137 144.5161 191.31055 145.91406 C 191.11546 146.05386 191.39476 146.44449 191.58984 146.30469 C 192.89039 145.37272 193.67555 144.61292 195.13867 143.56445 C 196.40671 142.65578 197.92923 141.76218 199.19727 140.85352 C 199.39235 140.71372 199.11305 140.3231 198.91797 140.46289 C 197.74747 141.30166 196.24911 140.99627 192.46094 138.9375 L 172.98633 128.58398 z M 174.53711 133.77148 L 181.15039 137.30078 L 176.01367 140.98047 L 174.53711 133.77148 z M 157.72656 141.22461 C 157.68084 141.2063 157.63804 141.20648 157.60938 141.23438 C 156.66331 142.15489 155.54282 143.41192 154.10938 144.80664 C 152.76194 146.11768 151.44544 147.23128 150.4707 148.17969 C 150.35602 148.2912 150.69001 148.63502 150.80469 148.52344 C 152.66816 146.7103 153.34752 146.71939 154.9375 148.35352 L 167.85352 161.62695 C 169.47139 163.28974 169.43379 163.94077 167.57031 165.75391 C 167.4556 165.86542 167.78963 166.20922 167.9043 166.09766 C 168.87904 165.14924 170.05685 163.89308 171.4043 162.58203 C 172.83773 161.18732 174.06822 160.10074 175.04297 159.15234 C 175.15768 159.0407 174.82365 158.69506 174.70898 158.80664 C 172.81683 160.64768 172.25069 160.58469 170.63281 158.92188 L 157.77344 145.70508 C 156.18347 144.07095 156.07988 143.39127 157.94336 141.57812 C 158.02939 141.49449 157.86372 141.27954 157.72656 141.22461 z M 142.54688 160.78906 C 140.62115 160.72741 138.55207 162.02024 136.59961 164.64648 C 135.64501 165.93051 134.62172 167.70986 133.71484 168.92969 C 132.59318 170.43842 131.49305 171.71522 130.68164 172.80664 C 130.61005 172.90299 130.99676 173.19004 131.06836 173.09375 C 132.61959 171.0072 133.26596 170.94047 135.0957 172.30078 L 149.95898 183.34961 C 151.82083 184.73378 151.88717 185.3822 150.33594 187.46875 C 150.24047 187.59717 150.62524 187.88426 150.7207 187.75586 C 151.53212 186.66443 152.49553 185.23529 153.61719 183.72656 C 154.81044 182.12153 155.82878 180.88524 156.66406 179.76172 C 156.73566 179.66537 156.35089 179.3783 156.2793 179.47461 C 154.70419 181.59325 154.11185 181.65175 152.25 180.26758 L 144.73828 174.68359 C 145.12836 174.22594 145.60601 173.58478 146.01172 173.03906 C 146.27423 172.68597 146.50481 172.30903 146.70312 171.9082 C 155.93112 172.83737 161.81877 172.82916 162.55859 171.83398 L 166.40039 166.66406 C 166.4958 166.53565 166.11109 166.2505 166.01562 166.37891 C 164.08255 168.97907 159.34868 169.44606 147.68945 168.70312 C 148.00607 165.99776 147.11499 163.24222 145.06055 161.71484 C 144.26806 161.12568 143.42221 160.81709 142.54688 160.78906 z M 139.48828 163.9707 C 140.62098 163.89693 142.03897 164.40317 143.88477 165.77539 C 146.99854 168.09032 147.21304 169.74615 145.35156 172.25 C 144.96972 172.76361 144.36572 173.5094 143.83984 174.01562 L 137.45117 169.26758 C 135.74983 168.00272 135.68303 167.15327 136.80469 165.64453 C 137.50871 164.69756 138.35558 164.04448 139.48828 163.9707 z M 132.30078 184.88672 C 127.51697 184.71219 122.66224 187.16508 120.35352 192.60547 C 117.82212 198.57057 118.79291 207.23809 126.7832 210.62891 C 133.26381 213.37906 140.6678 211.08928 143.66797 204.01953 C 146.63689 197.02342 143.81366 188.83025 136.96484 185.92383 C 135.48277 185.29489 133.89539 184.94489 132.30078 184.88672 z M 130.1875 188.86914 C 132.13601 188.93168 134.23062 189.41304 136.35938 190.31641 C 142.95044 193.11344 145.17393 198.01082 143.31445 202.39258 C 141.09558 207.62126 134.23743 209.14275 127.13086 206.12695 C 121.12894 203.57993 118.63856 199.3083 120.66992 194.52148 C 122.32431 190.623 125.90077 188.73156 130.1875 188.86914 z M 112.48047 215.18359 C 112.43379 215.192 112.40077 215.21055 112.39648 215.24023 C 112.23058 216.38831 112.17415 217.35004 111.94531 218.93359 C 111.8309 219.72537 111.67035 220.36766 111.60742 220.70312 C 111.52733 221.25737 111.75895 221.61547 112.42578 222.03516 L 129.33984 232.52148 L 111.09766 238.77734 C 109.26948 239.40229 108.87837 239.58819 108.77539 240.30078 C 108.70102 240.81543 108.64429 241.77718 108.47266 242.96484 C 108.35824 243.75663 108.09992 244.97069 107.95117 246 C 107.92828 246.15836 108.40485 246.22866 108.42773 246.07031 C 108.63941 244.60552 109.551 243.60451 111.39062 242.90039 L 128.36328 245.7168 C 131.12877 246.15686 132.49434 247.60778 132.17969 249.78516 C 132.1568 249.94351 132.63141 250.01186 132.6543 249.85352 C 132.81448 248.74503 132.92546 247.42731 133.1543 245.84375 C 133.37169 244.33937 133.6212 243.1637 133.78711 242.01562 C 133.81 241.85727 133.33538 241.78892 133.3125 241.94727 C 132.98068 244.24341 131.27721 245.12756 128.51172 244.6875 L 113.51953 242.1582 L 134.50586 235.08594 C 134.72097 234.99571 134.79002 234.52184 134.60352 234.41406 L 116.10742 223.13281 L 133.00586 224.76562 C 135.32489 224.93909 135.68646 225.5171 135.32031 228.05078 C 135.30315 228.16948 135.77776 228.2379 135.79492 228.11914 C 135.98944 226.77312 136.13932 225.17904 136.4082 223.31836 C 136.67709 221.45769 137.00861 219.72688 137.20312 218.38086 C 137.22029 218.26216 136.74568 218.19376 136.72852 218.3125 C 136.35665 220.88577 135.86995 221.17789 133.55664 220.96484 L 115.33203 219.26172 C 113.17708 219.07154 112.51262 217.80269 112.87305 215.30859 C 112.88592 215.21957 112.62052 215.15839 112.48047 215.18359 z M 127.12891 253.36523 C 127.00907 253.37189 126.91426 253.81824 127.07617 253.84961 C 130.60261 254.62179 132.43994 256.76651 132.63281 260.36133 L 132.73828 262.31836 C 132.83043 264.03589 132.26138 264.62641 130.50391 264.7207 L 121.43555 265.20703 L 121.23242 261.41406 C 121.07169 258.41838 122.19095 256.87586 124.42773 256.75586 C 124.54757 256.74921 124.52218 256.26896 124.40234 256.27539 C 122.92447 256.3547 121.77123 256.53671 120.45312 256.60742 C 119.41462 256.66318 118.69409 256.66183 116.97656 256.75391 C 116.81679 256.76189 116.84024 257.20194 117 257.19336 C 118.91724 257.09049 120.03282 258.47394 120.19141 261.42969 L 120.39648 265.26367 L 112.25 265.70117 C 110.61236 265.789 109.93509 265.14469 109.83008 263.1875 L 109.74609 261.58789 C 109.58108 258.51232 110.99865 256.59492 114 255.79297 C 114.15548 255.70448 114.05538 255.30803 113.93555 255.31445 L 108.74609 255.67383 C 108.50644 255.68714 108.39106 255.77222 108.4082 256.0918 L 109.30078 272.70898 C 109.3093 272.86875 109.78787 272.84333 109.7793 272.68359 C 109.64 270.08733 110.09632 269.62215 112.37305 269.5 L 130.86719 268.50781 C 133.18385 268.38352 133.64586 268.79826 133.78516 271.39453 C 133.79367 271.5543 134.27224 271.52888 134.26367 271.36914 L 133.33398 254.0332 C 133.30826 253.55389 133.14249 253.44323 132.70312 253.4668 C 130.94565 253.56115 128.65744 253.48354 127.12891 253.36523 z M 134.11523 274.02539 C 133.97376 274.0101 133.71526 274.08981 133.73438 274.17773 C 134.28646 276.71844 133.93302 277.16354 131.69141 277.77344 L 114.02344 282.55469 C 111.93818 283.13061 110.87104 282.17542 110.33594 279.71289 C 110.31045 279.59565 109.84171 279.69722 109.86719 279.81445 C 110.1135 280.948 110.39463 281.87009 110.73438 283.43359 C 110.90425 284.21536 110.94563 284.77903 111.03906 285.20898 C 111.15798 285.75622 111.49995 286.00815 112.27148 286.16797 L 131.78516 290.07422 L 116.88477 302.31641 C 115.39085 303.54157 115.09125 303.85306 115.24414 304.55664 C 115.35456 305.06478 115.63582 305.98556 115.89062 307.1582 C 116.0605 307.93995 116.24596 309.16927 116.4668 310.18555 C 116.50077 310.34189 116.96952 310.24035 116.93555 310.08398 C 116.62128 308.63773 117.12659 307.38147 118.60352 306.07812 L 135.48633 302.77734 C 138.23097 302.22187 140.01918 303.10212 140.48633 305.25195 C 140.5203 305.4083 140.98905 305.30675 140.95508 305.15039 C 140.71726 304.05593 140.35928 302.78422 140.01953 301.2207 C 139.69677 299.73537 139.51975 298.54567 139.27344 297.41211 C 139.23946 297.25576 138.77071 297.35731 138.80469 297.51367 C 139.29732 299.78076 138.01027 301.20626 135.26562 301.76172 L 120.33594 304.63672 L 137.52344 290.66992 C 137.6934 290.51018 137.59133 290.04156 137.37891 290.00586 L 116.10352 285.9082 L 132.50586 281.52539 C 134.73898 280.87641 135.28062 281.29136 135.82422 283.79297 C 135.8497 283.91021 136.31845 283.80864 136.29297 283.69141 C 136.00418 282.36242 135.5867 280.81564 135.1875 278.97852 C 134.7883 277.14139 134.49191 275.40516 134.20312 274.07617 C 134.19675 274.04686 134.16239 274.03049 134.11523 274.02539 z "
     id="path900"
     transform="matrix(0.75146695,0,0,0.75146695,-15.37554,0)" />
</svg>
